<svg width="12" height="11" viewBox="0 0 12 11" fill="none" xmlns="http://www.w3.org/2000/svg">
<path d="M8.99516 6.17581H0.000124967V4.18232H8.99516V6.17581ZM8.99516 6.17581L6.214 8.87918C6.07137 9.02181 6.00006 9.19685 6.00006 9.4043C6.00006 9.61175 6.07461 9.79003 6.22372 9.93914C6.24317 9.95859 6.26586 9.97804 6.29179 9.99749C6.31772 10.0169 6.34365 10.0331 6.36958 10.0461C6.40848 10.072 6.449 10.0947 6.49114 10.1142C6.53328 10.1336 6.57704 10.1498 6.62242 10.1628H7.35175C7.42954 10.1434 7.50409 10.1126 7.57541 10.0704C7.64672 10.0283 7.71155 9.97804 7.76989 9.91969L11.7374 5.73821C11.7699 5.7058 11.7974 5.67176 11.8201 5.63611C11.8428 5.60045 11.8639 5.56318 11.8833 5.52428C11.9222 5.46593 11.9514 5.40596 11.9708 5.34438C11.9903 5.28279 12 5.21634 12 5.14503C11.9935 4.98944 11.9449 4.84843 11.8541 4.72202C11.7634 4.5956 11.6467 4.49998 11.5041 4.43515L7.76989 0.51623C7.58189 0.328225 7.35661 0.222878 7.09405 0.200188C6.83149 0.177498 6.59 0.237464 6.36958 0.380088C6.19455 0.483815 6.07947 0.636164 6.02437 0.837134C5.96927 1.0381 5.99358 1.22611 6.0973 1.40115C6.11675 1.43356 6.1362 1.46111 6.15565 1.4838C6.1751 1.50649 6.19455 1.53081 6.214 1.55674L8.99516 4.18232V6.17581Z" fill="#20332C"/>
</svg>
