<svg width="17" height="17" viewBox="0 0 17 17" fill="none" xmlns="http://www.w3.org/2000/svg">
<path d="M16.853 7.70307C16.8421 7.57026 16.8339 7.43191 16.8284 7.28803C16.823 7.14415 16.8039 7.00581 16.7712 6.87299C16.695 6.43028 16.5805 5.99864 16.428 5.57807C16.2754 5.1575 16.0901 4.74799 15.8722 4.34956C15.6325 3.89578 15.3518 3.47521 15.0304 3.08784C14.7089 2.70047 14.3575 2.33524 13.976 1.99214C13.66 1.71544 13.3277 1.46642 12.9789 1.24507C12.6302 1.02371 12.2706 0.830028 11.9001 0.664013C11.5732 0.520133 11.2462 0.395622 10.9193 0.290477C10.5924 0.185334 10.2546 0.110628 9.90586 0.0663569C9.77509 0.0442216 9.64432 0.0331539 9.51355 0.0331539C9.38278 0.0331539 9.25201 0.0220863 9.12124 -4.90588e-05H7.84624C7.82445 0.0220863 7.80266 0.030387 7.78086 0.0248532C7.75907 0.0193194 7.73727 0.0165524 7.71548 0.0165524C7.58471 0.0276201 7.44849 0.0386878 7.30682 0.0497554C7.16516 0.0608231 7.02894 0.0774246 6.89817 0.0995599C6.45137 0.177034 6.02093 0.296011 5.60682 0.456494C5.19272 0.616975 4.78952 0.802359 4.39721 1.01265C3.97221 1.25614 3.57173 1.53559 3.19577 1.85102C2.81981 2.16645 2.46836 2.50678 2.14144 2.87202C1.85811 3.20405 1.60202 3.55268 1.37317 3.91792C1.14433 4.28315 0.948172 4.66499 0.784711 5.06342C0.632147 5.41759 0.501378 5.77729 0.392404 6.14252C0.283429 6.50776 0.212596 6.88406 0.179904 7.27143C0.169006 7.35997 0.163558 7.44851 0.163558 7.53705C0.163558 7.6256 0.15266 7.71414 0.130865 7.80268V9.19721C0.15266 9.20828 0.160833 9.22488 0.155385 9.24701C0.149936 9.26915 0.147211 9.29128 0.147211 9.31342C0.158109 9.44623 0.166282 9.58181 0.171731 9.72016C0.177179 9.8585 0.19625 9.99408 0.228942 10.1269C0.305224 10.5696 0.419647 11.0012 0.572211 11.4218C0.724775 11.8424 0.910031 12.2519 1.12798 12.6503C1.36772 13.1041 1.64833 13.5274 1.96981 13.9203C2.29128 14.3133 2.64272 14.6757 3.02413 15.0078C3.34016 15.2844 3.67253 15.5335 4.02125 15.7548C4.36996 15.9762 4.72958 16.1699 5.10009 16.3359C5.42702 16.4798 5.75394 16.6043 6.08086 16.7094C6.40778 16.8146 6.7456 16.8893 7.09432 16.9335C7.22509 16.9557 7.35314 16.9667 7.47846 16.9667C7.60378 16.9667 7.72637 16.9778 7.84624 16.9999H9.12124C9.14304 16.9778 9.16756 16.9695 9.1948 16.975C9.22204 16.9806 9.25201 16.9833 9.28471 16.9833C9.41547 16.9723 9.55169 16.964 9.69336 16.9584C9.83503 16.9529 9.97124 16.9335 10.102 16.9003C10.5597 16.8118 10.9983 16.6873 11.4179 16.5268C11.8374 16.3663 12.2488 16.1754 12.652 15.954C12.9898 15.7548 13.3113 15.539 13.6164 15.3066C13.9216 15.0742 14.2103 14.8196 14.4828 14.5429C14.8424 14.1666 15.1666 13.7654 15.4554 13.3393C15.7442 12.9132 15.9921 12.4566 16.1991 11.9697C16.3517 11.6155 16.4852 11.253 16.5996 10.8823C16.714 10.5115 16.7876 10.1269 16.8203 9.72846C16.8203 9.63992 16.823 9.55138 16.8284 9.46283C16.8339 9.37429 16.8475 9.28575 16.8693 9.19721V7.83588C16.8475 7.81375 16.8393 7.79161 16.8448 7.76948C16.8502 7.74734 16.853 7.72521 16.853 7.70307ZM12.178 8.89838C11.9491 9.14187 11.7203 9.38259 11.4914 9.62055C11.2626 9.8585 11.0392 10.0992 10.8212 10.3427C10.636 10.5419 10.4507 10.7384 10.2655 10.9321C10.0802 11.1258 9.89496 11.3222 9.7097 11.5214C9.58983 11.6653 9.45634 11.7455 9.30922 11.7621C9.16211 11.7787 9.01227 11.7704 8.85971 11.7372C8.67445 11.693 8.56275 11.5768 8.52461 11.3886C8.48647 11.2005 8.53823 11.0344 8.6799 10.8906C8.94144 10.6249 9.2057 10.3593 9.47269 10.0937C9.73967 9.82807 10.0094 9.56244 10.2818 9.29682C10.3036 9.28575 10.3254 9.26915 10.3472 9.24701C10.369 9.22488 10.3962 9.20274 10.4289 9.18061C10.3853 9.15847 10.3472 9.1474 10.3145 9.1474C10.2818 9.1474 10.2491 9.1474 10.2164 9.1474C9.76964 9.1474 9.32285 9.1474 8.87605 9.1474C8.41836 9.1474 7.96612 9.1474 7.51932 9.1474C7.07253 9.1474 6.62028 9.1474 6.16259 9.1474C5.7158 9.1474 5.269 9.1474 4.82221 9.1474C4.75682 9.1474 4.71051 9.13634 4.68327 9.1142C4.65602 9.09207 4.6424 9.0478 4.6424 8.98139C4.6533 8.82644 4.65875 8.66873 4.65875 8.50824C4.65875 8.34776 4.6533 8.19005 4.6424 8.0351C4.6424 7.95763 4.6533 7.90505 4.67509 7.87739C4.69689 7.84972 4.75138 7.83588 4.83855 7.83588C5.28535 7.83588 5.73214 7.83588 6.17894 7.83588C6.61484 7.83588 7.05618 7.83588 7.50298 7.83588C7.94977 7.83588 8.39656 7.83588 8.84336 7.83588C9.29015 7.83588 9.73695 7.83588 10.1837 7.83588H10.3962C10.3853 7.80268 10.369 7.77501 10.3472 7.75287C10.3254 7.73074 10.3036 7.71414 10.2818 7.70307C10.0312 7.44851 9.77509 7.19672 9.51355 6.9477C9.25201 6.69868 8.99047 6.44689 8.72894 6.19233C8.64176 6.11485 8.57637 6.03185 8.53278 5.94331C8.48919 5.85476 8.48919 5.74962 8.53278 5.62788C8.57637 5.50613 8.64448 5.41482 8.73711 5.35395C8.82974 5.29308 8.93599 5.25711 9.05586 5.24604C9.18663 5.2239 9.3065 5.23497 9.41547 5.27924C9.52445 5.32351 9.62253 5.39545 9.7097 5.49506C10.0802 5.90457 10.4535 6.30854 10.8294 6.70698C11.2054 7.10541 11.5841 7.50385 11.9655 7.90229C11.9873 7.92442 12.0063 7.94656 12.0227 7.96869C12.039 7.99083 12.0635 8.01297 12.0962 8.0351C12.2597 8.15685 12.3496 8.29242 12.366 8.44184C12.3823 8.59125 12.3196 8.74343 12.178 8.89838Z" fill="white"/>
</svg>
