<svg width="67" height="86" viewBox="0 0 67 86" fill="none" xmlns="http://www.w3.org/2000/svg">
<mask id="mask0_1_4246" style="mask-type:alpha" maskUnits="userSpaceOnUse" x="0" y="0" width="67" height="86">
<g clip-path="url(#clip0_1_4246)">
<path d="M0 0H52.1734L66.8889 15.48V86H0V0Z" fill="black"/>
</g>
</mask>
<g mask="url(#mask0_1_4246)">
<rect width="66.2809" height="85.2183" transform="scale(1.00917)" fill="#F48120"/>
<path d="M22.6943 32.2502C20.7153 32.2502 19.111 33.8545 19.111 35.8335V50.1669L19.1111 50.1853C19.121 52.1558 20.7215 53.7502 22.6943 53.7502H32.5485C33.0433 53.7502 33.4443 53.349 33.4443 52.8544C33.4443 52.3597 33.0433 51.9585 32.5485 51.9585H22.6943C21.8651 51.9585 21.1674 51.395 20.9632 50.6302L31.0689 44.4113L33.4443 45.8366L45.986 38.3116V43.896C45.986 44.3908 46.3872 44.7919 46.8819 44.7919C47.3765 44.7919 47.7777 44.3908 47.7777 43.896V35.8335C47.7777 33.8545 46.1734 32.2502 44.1944 32.2502H22.6943ZM29.338 43.3728L20.9027 48.5637V38.3116L29.338 43.3728ZM20.9027 36.2221V35.8335C20.9027 34.844 21.7048 34.0419 22.6943 34.0419H44.1944C45.1839 34.0419 45.986 34.844 45.986 35.8335V36.2221L33.4443 43.7471L20.9027 36.2221Z" fill="white"/>
<path d="M44.6356 54.2315C46.4451 54.2315 47.4793 52.696 47.4793 50.6045V50.2286C47.4793 47.3535 45.3406 44.7919 41.5414 44.7919H41.4786C37.7812 44.7919 35.2352 47.2282 35.2352 50.9413V51.3252C35.2352 55.2185 37.8125 57.3336 41.2515 57.3336H41.3298C42.3953 57.3336 43.1551 57.2005 43.5468 57.0202V55.712C43.108 55.9078 42.3403 56.0332 41.4317 56.0332H41.3532C38.964 56.0332 36.7471 54.6232 36.7471 51.2781V50.9961C36.7471 48.0271 38.6428 46.1158 41.4786 46.1158H41.5491C44.2987 46.1158 45.9987 47.996 45.9987 50.2834V50.4948C45.9987 52.2417 45.4189 52.9859 44.8549 52.9859C44.4397 52.9859 44.1187 52.7195 44.1187 52.234V48.3091H42.497V49.3275H42.4422C42.2933 48.7949 41.7841 48.1995 40.7344 48.1995C39.3401 48.1995 38.4783 49.1944 38.4783 50.7064V51.6542C38.4783 53.2522 39.3557 54.2236 40.7344 54.2236C41.5804 54.2236 42.3403 53.8164 42.5519 53.0721H42.6301C42.8417 53.8241 43.7347 54.2315 44.6356 54.2315ZM40.241 51.3878V50.9805C40.241 50.0014 40.6482 49.5626 41.267 49.5626C41.7999 49.5626 42.2933 49.9073 42.2933 50.8316V51.4897C42.2933 52.516 41.8389 52.8215 41.2828 52.8215C40.6482 52.8215 40.241 52.4375 40.241 51.3878Z" fill="white"/>
</g>
<defs>
<clipPath id="clip0_1_4246">
<rect width="66.2809" height="85.2183" fill="white" transform="scale(1.00917)"/>
</clipPath>
</defs>
</svg>
