<svg width="67" height="86" viewBox="0 0 67 86" fill="none" xmlns="http://www.w3.org/2000/svg">
<mask id="mask0_1_4258" style="mask-type:alpha" maskUnits="userSpaceOnUse" x="0" y="0" width="67" height="86">
<g clip-path="url(#clip0_1_4258)">
<path d="M0 0H52.1734L66.8889 15.48V86H0V0Z" fill="black"/>
</g>
</mask>
<g mask="url(#mask0_1_4258)">
<rect width="66.2809" height="85.2183" transform="scale(1.00917)" fill="#F48120"/>
<path d="M33.4456 28.6668C30.6107 28.6668 27.8395 29.5075 25.4824 31.0824C23.1253 32.6574 21.2881 34.896 20.2033 37.515C19.1184 40.1341 18.8346 43.0161 19.3876 45.7965C19.9407 48.5769 21.3058 51.1308 23.3104 53.1354C25.3149 55.1399 27.8689 56.505 30.6493 57.0581C33.4297 57.6112 36.3116 57.3273 38.9307 56.2424C41.5498 55.1576 43.7883 53.3205 45.3633 50.9633C46.9383 48.6062 47.7789 45.835 47.7789 43.0002C47.7748 39.2 46.2633 35.5566 43.5762 32.8695C40.8891 30.1824 37.2457 28.6709 33.4456 28.6668ZM33.4456 54.9446C31.0832 54.9446 28.7738 54.2441 26.8096 52.9316C24.8453 51.6191 23.3144 49.7537 22.4103 47.5711C21.5063 45.3886 21.2697 42.9869 21.7306 40.6699C22.1915 38.3529 23.3291 36.2246 24.9996 34.5542C26.67 32.8837 28.7983 31.7461 31.1153 31.2852C33.4323 30.8244 35.8339 31.0609 38.0165 31.9649C40.1991 32.869 42.0645 34.3999 43.377 36.3642C44.6895 38.3284 45.39 40.6378 45.39 43.0002C45.3865 46.167 44.127 49.2031 41.8877 51.4423C39.6484 53.6816 36.6124 54.9411 33.4456 54.9446Z" fill="white"/>
<path d="M33.4454 35.8335C33.1286 35.8335 32.8248 35.9594 32.6008 36.1834C32.3768 36.4074 32.2509 36.7112 32.2509 37.028V42.194L28.2245 44.7166C27.9552 44.8848 27.7638 45.1531 27.6923 45.4625C27.6209 45.7718 27.6752 46.0969 27.8434 46.3662C28.0116 46.6354 28.2799 46.8268 28.5893 46.8983C28.8986 46.9698 29.2237 46.9154 29.493 46.7472L34.0796 43.8805C34.2529 43.7719 34.3954 43.6207 34.4935 43.4412C34.5916 43.2618 34.642 43.0602 34.6398 42.8557V37.028C34.6398 36.7112 34.514 36.4074 34.29 36.1834C34.066 35.9594 33.7622 35.8335 33.4454 35.8335Z" fill="white"/>
</g>
<defs>
<clipPath id="clip0_1_4258">
<rect width="66.2809" height="85.2183" fill="white" transform="scale(1.00917)"/>
</clipPath>
</defs>
</svg>
