<svg width="67" height="86" viewBox="0 0 67 86" fill="none" xmlns="http://www.w3.org/2000/svg">
<mask id="mask0_1_4221" style="mask-type:alpha" maskUnits="userSpaceOnUse" x="0" y="0" width="67" height="86">
<g clip-path="url(#clip0_1_4221)">
<path d="M0 0H52.1734L66.8889 15.48V86H0V0Z" fill="black"/>
</g>
</mask>
<g mask="url(#mask0_1_4221)">
<rect width="66.2809" height="85.2183" transform="scale(1.00917)" fill="#F48120"/>
<path d="M38.8898 47.9241C42.3606 42.4536 41.9243 43.1361 42.0243 42.9935C43.2879 41.2032 43.9558 39.0961 43.9558 36.9C43.9558 31.0758 39.2505 26.2779 33.4447 26.2779C27.6577 26.2779 22.9335 31.0663 22.9335 36.9C22.9335 39.0947 23.6154 41.2569 24.9205 43.0713L27.9994 47.9242C24.7075 48.4323 19.1113 49.9467 19.1113 53.2809C19.1113 54.4964 19.9011 56.2285 23.6637 57.5783C26.291 58.5208 29.7645 59.0398 33.4447 59.0398C40.3263 59.0398 47.778 57.09 47.778 53.2809C47.778 49.946 42.1884 48.4334 38.8898 47.9241ZM26.5168 42.0155C26.5063 41.999 26.4953 41.9829 26.4839 41.967C25.3979 40.4663 24.8446 38.6878 24.8446 36.9C24.8446 32.0997 28.6928 28.1976 33.4447 28.1976C38.1867 28.1976 42.0447 32.1014 42.0447 36.9C42.0447 38.6907 41.5018 40.4089 40.4746 41.87C40.3826 41.992 40.8628 41.2425 33.4447 52.9347L26.5168 42.0155ZM33.4447 57.1202C25.928 57.1202 21.0224 54.9009 21.0224 53.2809C21.0224 52.1921 23.5431 50.4018 29.1286 49.704L32.6388 55.2365C32.8143 55.5131 33.1181 55.6805 33.4446 55.6805C33.7711 55.6805 34.075 55.513 34.2504 55.2365L37.7605 49.704C43.3462 50.4018 45.8669 52.1921 45.8669 53.2809C45.8669 54.8872 41.0055 57.1202 33.4447 57.1202Z" fill="white"/>
<path d="M33.4476 32.1004C30.8131 32.1004 28.6698 34.2533 28.6698 36.8995C28.6698 39.5457 30.8131 41.6986 33.4476 41.6986C36.082 41.6986 38.2253 39.5457 38.2253 36.8995C38.2253 34.2533 36.082 32.1004 33.4476 32.1004ZM33.4476 39.779C31.8669 39.779 30.5809 38.4873 30.5809 36.8995C30.5809 35.3118 31.8669 34.02 33.4476 34.02C35.0282 34.02 36.3142 35.3118 36.3142 36.8995C36.3142 38.4873 35.0282 39.779 33.4476 39.779Z" fill="white"/>
</g>
<defs>
<clipPath id="clip0_1_4221">
<rect width="66.2809" height="85.2183" fill="white" transform="scale(1.00917)"/>
</clipPath>
</defs>
</svg>
