<svg width="67" height="86" viewBox="0 0 67 86" fill="none" xmlns="http://www.w3.org/2000/svg">
<mask id="mask0_1_4232" style="mask-type:alpha" maskUnits="userSpaceOnUse" x="0" y="0" width="67" height="86">
<g clip-path="url(#clip0_1_4232)">
<path d="M0 0H52.1734L66.8889 15.48V86H0V0Z" fill="black"/>
</g>
</mask>
<g mask="url(#mask0_1_4232)">
<rect width="66.2809" height="85.2183" transform="scale(1.00917)" fill="#F48120"/>
<path d="M41.7804 46.4266C41.1926 45.8155 40.4837 45.4888 39.7323 45.4888C38.9871 45.4888 38.2721 45.8094 37.6601 46.4205L35.7454 48.3264C35.5879 48.2417 35.4303 48.163 35.2789 48.0844C35.0607 47.9754 34.8547 47.8726 34.679 47.7637C32.8855 46.6262 31.2555 45.1438 29.6923 43.2259C28.9348 42.2699 28.4259 41.4652 28.0563 40.6484C28.5531 40.1946 29.0137 39.7227 29.462 39.269C29.6316 39.0996 29.8013 38.924 29.971 38.7546C31.2435 37.4841 31.2435 35.8384 29.971 34.5678L28.3168 32.916C28.129 32.7285 27.9351 32.5348 27.7533 32.3412C27.3898 31.9661 27.008 31.5789 26.6142 31.2159C26.0264 30.635 25.3236 30.3264 24.5844 30.3264C23.8451 30.3264 23.1302 30.635 22.5242 31.2159C22.5182 31.2219 22.5182 31.2219 22.5121 31.228L20.452 33.3032C19.6764 34.0777 19.2341 35.0216 19.1371 36.1167C18.9917 37.8834 19.5128 39.5291 19.9127 40.6061C20.8943 43.2501 22.3606 45.7005 24.548 48.3264C27.2019 51.4907 30.3951 53.9895 34.0428 55.7502C35.4364 56.4097 37.2965 57.1902 39.3749 57.3234C39.5021 57.3294 39.6354 57.3354 39.7566 57.3354C41.1563 57.3354 42.3317 56.8332 43.2528 55.8349C43.2588 55.8228 43.271 55.8167 43.277 55.8047C43.5921 55.4235 43.9556 55.0787 44.3374 54.7095C44.5979 54.4615 44.8645 54.2014 45.125 53.929C45.7249 53.3058 46.04 52.5798 46.04 51.8356C46.04 51.0854 45.7189 50.3654 45.1069 49.7603L41.7804 46.4266ZM43.9496 52.7976C43.9435 52.7976 43.9435 52.8037 43.9496 52.7976C43.7133 53.0517 43.4709 53.2816 43.2104 53.5358C42.8165 53.9109 42.4166 54.3042 42.041 54.7458C41.4289 55.3993 40.7079 55.7079 39.7626 55.7079C39.6718 55.7079 39.5749 55.7079 39.4839 55.7018C37.6844 55.5868 36.012 54.885 34.7577 54.286C31.3282 52.6282 28.3168 50.2746 25.8144 47.2917C23.7482 44.8051 22.3667 42.5059 21.4518 40.0373C20.8883 38.5308 20.6822 37.357 20.7731 36.2498C20.8337 35.5419 21.1064 34.955 21.6093 34.4528L23.6755 32.3896C23.9724 32.1113 24.2875 31.9601 24.5965 31.9601C24.9782 31.9601 25.2872 32.19 25.4811 32.3836C25.4872 32.3896 25.4932 32.3957 25.4993 32.4017C25.8689 32.7466 26.2203 33.1036 26.59 33.4848C26.7778 33.6784 26.9717 33.872 27.1656 34.0716L28.8197 35.7234C29.462 36.3647 29.462 36.9577 28.8197 37.599C28.644 37.7745 28.4744 37.9499 28.2987 38.1194C27.7897 38.6397 27.3049 39.1237 26.7778 39.5957C26.7657 39.6077 26.7536 39.6138 26.7475 39.6259C26.2264 40.1463 26.3233 40.6544 26.4324 40.9993C26.4385 41.0175 26.4445 41.0356 26.4506 41.0538C26.8808 42.0945 27.4867 43.0747 28.4077 44.2424L28.4138 44.2484C30.0861 46.3055 31.8494 47.9089 33.7943 49.1371C34.0428 49.2945 34.2972 49.4215 34.5397 49.5425C34.7577 49.6514 34.9637 49.7543 35.1395 49.8631C35.1637 49.8753 35.188 49.8934 35.2122 49.9056C35.4182 50.0084 35.6121 50.0568 35.8121 50.0568C36.315 50.0568 36.63 49.7422 36.733 49.6393L38.8053 47.5701C39.0113 47.3644 39.3386 47.1163 39.7202 47.1163C40.0959 47.1163 40.405 47.3522 40.5927 47.558C40.5988 47.5641 40.5988 47.5641 40.6049 47.5701L43.9435 50.9038C44.5676 51.521 44.5676 52.1563 43.9496 52.7976Z" fill="white"/>
<path d="M34.6075 35.4858C36.195 35.752 37.6371 36.5023 38.7884 37.6518C39.9396 38.8014 40.6849 40.2414 40.9575 41.8266C41.0242 42.226 41.3695 42.5042 41.7634 42.5042C41.8119 42.5042 41.8543 42.4982 41.9027 42.4922C42.3512 42.4196 42.6481 41.9961 42.5754 41.5483C42.2482 39.6303 41.3393 37.8818 39.9517 36.4962C38.5641 35.1107 36.8131 34.2031 34.8923 33.8764C34.4439 33.8038 34.0258 34.1003 33.9471 34.5419C33.8682 34.9836 34.1591 35.4132 34.6075 35.4858Z" fill="white"/>
<path d="M47.7668 41.3125C47.2275 38.1542 45.7369 35.2803 43.4465 32.9932C41.1561 30.7062 38.278 29.2178 35.1151 28.6793C34.6728 28.6006 34.2547 28.9031 34.176 29.3448C34.1033 29.7926 34.4002 30.21 34.8485 30.2887C37.6721 30.7667 40.2473 32.1038 42.2953 34.1428C44.3433 36.1878 45.6763 38.7592 46.155 41.5787C46.2216 41.978 46.5671 42.2564 46.9609 42.2564C47.0093 42.2564 47.0517 42.2503 47.1003 42.2442C47.5426 42.1777 47.8455 41.7542 47.7668 41.3125Z" fill="white"/>
</g>
<defs>
<clipPath id="clip0_1_4232">
<rect width="66.2809" height="85.2183" fill="white" transform="scale(1.00917)"/>
</clipPath>
</defs>
</svg>
