<svg width="18" height="18" viewBox="0 0 18 18" fill="none" xmlns="http://www.w3.org/2000/svg">
<path d="M9 16.5C4.85775 16.5 1.5 13.1423 1.5 9C1.5 4.85775 4.85775 1.5 9 1.5C13.1423 1.5 16.5 4.85775 16.5 9C16.5 13.1423 13.1423 16.5 9 16.5ZM7.2825 14.7502C6.54256 13.1807 6.1139 11.4827 6.02025 9.75H3.0465C3.19262 10.9041 3.67069 11.991 4.42265 12.8786C5.17461 13.7662 6.1681 14.4164 7.2825 14.7502ZM7.5225 9.75C7.63575 11.5793 8.1585 13.2975 9 14.814C9.86436 13.2575 10.3692 11.5271 10.4775 9.75H7.5225ZM14.9535 9.75H11.9797C11.8861 11.4827 11.4574 13.1807 10.7175 14.7502C11.8319 14.4164 12.8254 13.7662 13.5774 12.8786C14.3293 11.991 14.8074 10.9041 14.9535 9.75ZM3.0465 8.25H6.02025C6.1139 6.51734 6.54256 4.81926 7.2825 3.24975C6.1681 3.58358 5.17461 4.23378 4.42265 5.12141C3.67069 6.00903 3.19262 7.09589 3.0465 8.25ZM7.52325 8.25H10.4767C10.3687 6.47293 9.8641 4.7426 9 3.186C8.13564 4.74254 7.63079 6.47287 7.5225 8.25M10.7167 3.24975C11.4569 4.81921 11.8859 6.51729 11.9797 8.25H14.9535C14.8074 7.09589 14.3293 6.00903 13.5774 5.12141C12.8254 4.23378 11.8319 3.58358 10.7175 3.24975" fill="white"/>
</svg>
